<svg xmlns="http://www.w3.org/2000/svg" width="36" height="36" viewBox="0 0 36 36">
  <!-- Back folder -->
  <path d="M8 14 L8 26 C8 27 9 28 10 28 L20 28 C21 28 22 27 22 26 L22 14 Z" fill="#90CAF9" stroke="#1976D2" stroke-width="1.5"/>
  <path d="M8 14 L8 12 C8 11 9 10 10 10 L13 10 L15 12 L20 12 C21 12 22 13 22 14 Z" fill="#64B5F6" stroke="#1976D2" stroke-width="1.5"/>
  <!-- Front folder -->
  <path d="M14 18 L14 30 C14 31 15 32 16 32 L26 32 C27 32 28 31 28 30 L28 18 Z" fill="#42A5F5" stroke="#1565C0" stroke-width="1.5"/>
  <path d="M14 18 L14 16 C14 15 15 14 16 14 L19 14 L21 16 L26 16 C27 16 28 17 28 18 Z" fill="#2196F3" stroke="#1565C0" stroke-width="1.5"/>
</svg>
