<svg xmlns="http://www.w3.org/2000/svg" width="32" height="32" viewBox="2 2 44 44">
  <!-- Doughnut chart -->
  <g transform="translate(24,24)">
    <!-- Outer ring slices -->
    <path d="M 0,-20 A 20,20 0 0,1 19,-6.2 L 11.4,-3.7 A 12,12 0 0,0 0,-12 Z" fill="#4285f4"/>
    <path d="M 19,-6.2 A 20,20 0 0,1 11.8,16.2 L 7.1,9.7 A 12,12 0 0,0 11.4,-3.7 Z" fill="#ea4335"/>
    <path d="M 11.8,16.2 A 20,20 0 0,1 -11.8,16.2 L -7.1,9.7 A 12,12 0 0,0 7.1,9.7 Z" fill="#fbbc04"/>
    <path d="M -11.8,16.2 A 20,20 0 0,1 -19,-6.2 L -11.4,-3.7 A 12,12 0 0,0 -7.1,9.7 Z" fill="#34a853"/>
    <path d="M -19,-6.2 A 20,20 0 0,1 0,-20 L 0,-12 A 12,12 0 0,0 -11.4,-3.7 Z" fill="#9c27b0"/>
  </g>
</svg>
