<svg width="48" height="48" viewBox="0 0 24 24" fill="white"><path d="M14,2H6A2,2 0 0,0 4,4V20A2,2 0 0,0 6,22H18A2,2 0 0,0 20,20V8L14,2M18,20H6V4H13V9H18V20M10.1,11.4C10.08,11.44 9.81,13.16 8,16.09C8,16.09 4.5,17.91 5.33,19.27C6,20.35 7.65,19.23 9.07,16.59C9.07,16.59 10.89,15.95 13.31,15.77C13.31,15.77 17.17,17.5 17.7,15.66C18.22,13.8 14.64,14.22 14,14.41C14,14.41 12,13.06 11.5,11.2C11.5,11.2 12.64,7.25 10.89,7.3C9.14,7.35 9.8,10.43 10.1,11.4M10.91,12.44C10.94,12.45 11.38,13.65 12.8,14.9C12.8,14.9 10.47,15.36 9.41,15.8C9.41,15.8 10.41,14.07 10.91,12.44M14.84,15.16C15.42,15 17.17,14.8 17.2,15.26C17.24,15.73 14.84,15.16 14.84,15.16M10.57,10.27C10.5,9.85 10.36,8.53 10.73,8.32C11.1,8.12 11.26,9.44 10.57,10.27Z"/></svg>
